<svg id="Icon_QR" xmlns="http://www.w3.org/2000/svg" xmlns:xlink="http://www.w3.org/1999/xlink" width="42.03" height="42.343" viewBox="0 0 42.03 42.343">
  <defs>
    <clipPath id="clip-path">
      <rect id="Rectangle_1823" data-name="Rectangle 1823" width="42.03" height="42.343" fill="none" stroke="#959595" stroke-width="1.2"/>
    </clipPath>
  </defs>
  <g id="Group_2444" data-name="Group 2444" clip-path="url(#clip-path)">
    <path id="Path_2264" data-name="Path 2264" d="M169.4,114.2l2.136-.3a2.147,2.147,0,0,0,1.822-2.428l-.081-.57a2.147,2.147,0,0,0-2.428-1.822l-2.136.3a2.147,2.147,0,0,0-1.822,2.428l.081.57A2.147,2.147,0,0,0,169.4,114.2Z" transform="translate(-135.528 -88.577)" fill="none" stroke="#959595" stroke-linecap="round" stroke-linejoin="round" stroke-width="1.2"/>
    <path id="Path_2265" data-name="Path 2265" d="M184.27,85.81l4.77-.68a2.435,2.435,0,0,0-.343-4.846,2.41,2.41,0,0,0-.346.026l-3.525.5" transform="translate(-149.665 -65.207)" fill="none" stroke="#959595" stroke-linecap="round" stroke-linejoin="round" stroke-width="1.2"/>
    <path id="Path_2266" data-name="Path 2266" d="M172.474,140.3l2.222-.317a2.167,2.167,0,0,0,1.84-2.452L176.46,137a2.167,2.167,0,0,0-2.452-1.839l-2.222.317a2.167,2.167,0,0,0-1.839,2.452l.075.529A2.167,2.167,0,0,0,172.474,140.3Z" transform="translate(-138.014 -109.759)" fill="none" stroke="#959595" stroke-linecap="round" stroke-linejoin="round" stroke-width="1.2"/>
    <path id="Path_2267" data-name="Path 2267" d="M177.817,166.292l2.006-.286a2.114,2.114,0,0,0,1.795-2.392l-.091-.634a2.115,2.115,0,0,0-2.392-1.795l-2.006.286a2.114,2.114,0,0,0-1.795,2.392l.09.634A2.114,2.114,0,0,0,177.817,166.292Z" transform="translate(-142.391 -130.898)" fill="none" stroke="#959595" stroke-linecap="round" stroke-linejoin="round" stroke-width="1.2"/>
    <path id="Path_2268" data-name="Path 2268" d="M3,51.119c1.133-2.643,5.615-6.579,7.114-11.618a20.408,20.408,0,0,0,.613-5.732,2.454,2.454,0,0,1,4.205,1.254c.657,3.68,1.059,8.775-.753,12.168" transform="translate(-2.437 -26.796)" fill="none" stroke="#959595" stroke-linecap="round" stroke-linejoin="round" stroke-width="1.2"/>
    <path id="Path_2269" data-name="Path 2269" d="M41.373,211.566a34.084,34.084,0,0,0-8.94,2.048" transform="translate(-26.342 -171.835)" fill="none" stroke="#959595" stroke-linecap="round" stroke-linejoin="round" stroke-width="1.2"/>
    <line id="Line_2" data-name="Line 2" x1="2.864" transform="translate(22.567 3.428)" fill="none" stroke="#959595" stroke-linecap="round" stroke-linejoin="round" stroke-width="1.2"/>
    <line id="Line_3" data-name="Line 3" transform="translate(20.283 3.428)" fill="none" stroke="#959595" stroke-linecap="round" stroke-linejoin="round" stroke-width="1.2"/>
    <path id="Path_2270" data-name="Path 2270" d="M65.346,9.98V5.74A2.739,2.739,0,0,1,68.086,3H85.5a2.74,2.74,0,0,1,2.74,2.74V22.96" transform="translate(-53.074 -2.437)" fill="none" stroke="#959595" stroke-linecap="round" stroke-linejoin="round" stroke-width="1.2"/>
    <path id="Path_2271" data-name="Path 2271" d="M65.346,102.192v17.8a2.74,2.74,0,0,0,2.74,2.74H85.419a2.817,2.817,0,0,0,2.817-2.817v-1.483" transform="translate(-53.074 -83.001)" fill="none" stroke="#959595" stroke-linecap="round" stroke-linejoin="round" stroke-width="1.2"/>
    <path id="Path_2272" data-name="Path 2272" d="M86.828,51.59V49.579h2.011" transform="translate(-70.522 -40.268)" fill="none" stroke="#959595" stroke-linecap="round" stroke-linejoin="round" stroke-width="1.2"/>
    <rect id="Rectangle_1820" data-name="Rectangle 1820" width="3.567" height="3.567" transform="translate(18.73 11.734)" fill="none" stroke="#959595" stroke-linecap="round" stroke-linejoin="round" stroke-width="1.2"/>
    <path id="Path_2273" data-name="Path 2273" d="M155.045,49.579h2.011V51.59" transform="translate(-125.928 -40.269)" fill="none" stroke="#959595" stroke-linecap="round" stroke-linejoin="round" stroke-width="1.2"/>
    <rect id="Rectangle_1821" data-name="Rectangle 1821" width="3.567" height="3.567" transform="translate(25.136 11.734)" fill="none" stroke="#959595" stroke-linecap="round" stroke-linejoin="round" stroke-width="1.2"/>
    <line id="Line_4" data-name="Line 4" x2="0.448" transform="translate(28.255 18.141)" fill="none" stroke="#959595" stroke-linecap="round" stroke-linejoin="round" stroke-width="1.2"/>
    <line id="Line_5" data-name="Line 5" x2="0.591" transform="translate(25.136 18.141)" fill="none" stroke="#959595" stroke-linecap="round" stroke-linejoin="round" stroke-width="1.2"/>
    <line id="Line_6" data-name="Line 6" x1="0.619" transform="translate(27.231 19.925)" fill="none" stroke="#959595" stroke-linecap="round" stroke-linejoin="round" stroke-width="1.2"/>
    <line id="Line_7" data-name="Line 7" transform="translate(25.136 19.925)" fill="none" stroke="#959595" stroke-linecap="round" stroke-linejoin="round" stroke-width="1.2"/>
    <line id="Line_8" data-name="Line 8" x1="0.619" transform="translate(25.136 21.708)" fill="none" stroke="#959595" stroke-linecap="round" stroke-linejoin="round" stroke-width="1.2"/>
    <line id="Line_9" data-name="Line 9" x2="0.619" transform="translate(28.084 21.708)" fill="none" stroke="#959595" stroke-linecap="round" stroke-linejoin="round" stroke-width="1.2"/>
    <path id="Path_2274" data-name="Path 2274" d="M88.839,119.806H86.828V117.8" transform="translate(-70.522 -95.674)" fill="none" stroke="#959595" stroke-linecap="round" stroke-linejoin="round" stroke-width="1.2"/>
    <rect id="Rectangle_1822" data-name="Rectangle 1822" width="3.567" height="3.567" transform="translate(18.73 18.141)" fill="none" stroke="#959595" stroke-linecap="round" stroke-linejoin="round" stroke-width="1.2"/>
  </g>
</svg>
